<svg width="32" height="32" viewBox="0 0 32 32" fill="none" xmlns="http://www.w3.org/2000/svg">
<rect opacity="0.5" x="7" y="14" width="7" height="12" rx="2" fill="white"/>
<rect x="18" y="6" width="7" height="20" rx="2" fill="white"/>
<path d="M32 16C32 24.8366 24.8526 32 16.0358 32C13.128 32 10.4018 31.2208 8.05364 29.8595C6.6583 29.0505 1.8928 30.8571 0.0715068 29.1429C-0.498604 27.4286 2.54744 24.6779 1.8928 23.4286C0.729635 21.2087 0.0715226 18.6814 0.0715226 16C0.0715226 7.16344 7.21896 0 16.0358 0C24.8526 0 32 7.16344 32 16Z" fill="#848BA2"/>
<rect x="24" y="11" width="4" height="15" rx="2" transform="rotate(90 24 11)" fill="white"/>
<rect opacity="0.5" x="19" y="18" width="4" height="10" rx="2" transform="rotate(90 19 18)" fill="white"/>
<rect width="32" height="32" fill="#F8F9FD"/>
<circle cx="16" cy="16" r="16" fill="#848BA2"/>
<path d="M24 10.134C24.6667 10.5189 24.6667 11.4811 24 11.866L19.5 14.4641C18.8333 14.849 18 14.3679 18 13.5981L18 8.40192C18 7.63212 18.8333 7.151 19.5 7.5359L24 10.134Z" fill="white"/>
<path d="M18 11L9 11" stroke="white" stroke-width="2" stroke-linecap="round"/>
<g opacity="0.5">
<path d="M8.5 21.866C7.83333 21.4811 7.83333 20.5189 8.5 20.134L13 17.5359C13.6667 17.151 14.5 17.6321 14.5 18.4019L14.5 23.5981C14.5 24.3679 13.6667 24.849 13 24.4641L8.5 21.866Z" fill="white"/>
<path d="M14.5 21L23.5 21" stroke="white" stroke-width="2" stroke-linecap="round"/>
</g>
</svg>
