<svg width="18" height="18" viewBox="0 0 18 18" fill="none" xmlns="http://www.w3.org/2000/svg">
<path d="M8.99998 11.2312C8.89998 11.2312 8.80323 11.2125 8.70973 11.175C8.61573 11.1375 8.53748 11.0875 8.47498 11.025L5.02498 7.57498C4.88748 7.43748 4.81873 7.26248 4.81873 7.04998C4.81873 6.83748 4.88748 6.66248 5.02498 6.52498C5.16248 6.38748 5.33748 6.31873 5.54998 6.31873C5.76248 6.31873 5.93748 6.38748 6.07498 6.52498L8.99998 9.44998L11.925 6.52498C12.0625 6.38748 12.2375 6.31873 12.45 6.31873C12.6625 6.31873 12.8375 6.38748 12.975 6.52498C13.1125 6.66248 13.1812 6.83748 13.1812 7.04998C13.1812 7.26248 13.1125 7.43748 12.975 7.57498L9.52498 11.025C9.44998 11.1 9.36873 11.153 9.28123 11.184C9.19373 11.2155 9.09998 11.2312 8.99998 11.2312Z" fill="black"/>
</svg>
