<svg width="32" height="32" viewBox="0 0 32 32" fill="none" xmlns="http://www.w3.org/2000/svg">
<path d="M15.9319 19.3866C11.332 19.3866 7.45068 20.1382 7.45068 23.0392C7.45068 25.9414 11.357 26.6667 15.9319 26.6667C20.5319 26.6667 24.4132 25.915 24.4132 23.014C24.4132 20.1118 20.5068 19.3866 15.9319 19.3866Z" fill="#848BA2"/>
<path d="M15.932 16.6227C19.0468 16.6227 21.5444 14.1108 21.5444 10.978C21.5444 7.84408 19.0468 5.33333 15.932 5.33333C12.8172 5.33333 10.3196 7.84408 10.3196 10.978C10.3196 14.1108 12.8172 16.6227 15.932 16.6227Z" fill="#5C697C"/>
<path d="M28.1171 12.2924C28.923 9.12239 26.5603 6.27544 23.5517 6.27544C23.2246 6.27544 22.9118 6.31146 22.6062 6.3727C22.5656 6.3823 22.5202 6.40271 22.4964 6.43874C22.4689 6.48436 22.4892 6.5456 22.519 6.58523C23.4228 7.86041 23.9421 9.41297 23.9421 11.0796C23.9421 12.6766 23.4658 14.1655 22.6301 15.4011C22.5441 15.5283 22.6205 15.7001 22.7721 15.7265C22.9823 15.7637 23.1972 15.7829 23.4168 15.7889C25.6076 15.8465 27.5739 14.4285 28.1171 12.2924Z" fill="#5C697C"/>
<path d="M30.4123 19.7559C30.0112 18.8962 29.0429 18.3066 27.5709 18.0172C26.8761 17.8467 24.9957 17.6066 23.2467 17.639C23.2204 17.6426 23.2061 17.6606 23.2037 17.6726C23.2001 17.6894 23.2073 17.7183 23.2419 17.7363C24.0502 18.1385 27.1745 19.888 26.7817 23.5779C26.765 23.7376 26.8928 23.8757 27.0516 23.8516C27.8204 23.7412 29.7986 23.3137 30.4123 21.9821C30.7514 21.2785 30.7514 20.4608 30.4123 19.7559Z" fill="#848BA2"/>
<path d="M9.39311 6.37306C9.08867 6.31062 8.77468 6.2758 8.44756 6.2758C5.43901 6.2758 3.07634 9.12275 3.8834 12.2927C4.42541 14.4288 6.39172 15.8469 8.58247 15.7893C8.80214 15.7833 9.01823 15.7629 9.22716 15.7268C9.37878 15.7004 9.45519 15.5287 9.36923 15.4014C8.53352 14.1647 8.05717 12.6769 8.05717 11.08C8.05717 9.41213 8.5777 7.85957 9.48146 6.58559C9.51011 6.54596 9.5316 6.48472 9.50295 6.4391C9.47907 6.40187 9.43489 6.38266 9.39311 6.37306Z" fill="#5C697C"/>
<path d="M4.42866 18.0169C2.95662 18.3063 1.98958 18.8958 1.58844 19.7556C1.24819 20.4604 1.24819 21.2781 1.58844 21.9829C2.20209 23.3134 4.18033 23.742 4.94919 23.8513C5.10797 23.8753 5.23452 23.7384 5.21781 23.5775C4.82502 19.8888 7.94938 18.1394 8.75883 17.7371C8.79226 17.7179 8.79942 17.6903 8.79584 17.6723C8.79345 17.6603 8.78032 17.6423 8.75405 17.6399C7.00384 17.6062 5.12469 17.8464 4.42866 18.0169Z" fill="#848BA2"/>
</svg>
