<svg width="85" height="51" viewBox="0 0 85 51" fill="none" xmlns="http://www.w3.org/2000/svg">
<path d="M11.04 39.624C9.33333 39.624 7.84 39.3467 6.56 38.792C5.30133 38.2373 4.256 37.48 3.424 36.52C2.592 35.5387 1.97333 34.4187 1.568 33.16C1.16267 31.9013 0.96 30.5787 0.96 29.192C0.96 27.784 1.20533 26.4827 1.696 25.288C2.208 24.072 2.90133 23.016 3.776 22.12C4.672 21.224 5.71733 20.5307 6.912 20.04C8.10667 19.528 9.408 19.272 10.816 19.272C12.288 19.272 13.6533 19.528 14.912 20.04C16.1707 20.552 17.2693 21.2667 18.208 22.184C19.1467 23.1013 19.872 24.1787 20.384 25.416C20.9173 26.6533 21.184 27.9973 21.184 29.448C21.184 32.6693 20.2987 35.176 18.528 36.968C16.7573 38.7387 14.2613 39.624 11.04 39.624ZM11.008 34.44C12.5653 34.44 13.7493 34.0027 14.56 33.128C15.392 32.2533 15.808 30.9947 15.808 29.352C15.808 27.88 15.36 26.696 14.464 25.8C13.568 24.904 12.3947 24.456 10.944 24.456C10.0693 24.456 9.26933 24.6907 8.544 25.16C7.81867 25.608 7.232 26.216 6.784 26.984C6.35733 27.7307 6.144 28.5627 6.144 29.48C6.144 30.2907 6.304 31.08 6.624 31.848C6.96533 32.616 7.49867 33.2453 8.224 33.736C8.94933 34.2053 9.87733 34.44 11.008 34.44ZM23.9163 39.336C23.8309 38.312 23.7563 37 23.6923 35.4C23.6496 33.8 23.6283 32.0613 23.6283 30.184C23.6283 28.52 23.6389 26.8027 23.6603 25.032C23.7029 23.2613 23.7563 21.5227 23.8203 19.816C23.9056 18.088 23.9909 16.4773 24.0763 14.984C24.1829 13.4693 24.3003 12.1467 24.4283 11.016L29.9963 11.4C29.6976 13.576 29.4629 15.784 29.2923 18.024C29.1429 20.2427 29.0469 22.504 29.0043 24.808C30.1989 23.976 31.5856 23.1013 33.1643 22.184C34.7643 21.2453 36.6843 20.1893 38.9243 19.016L41.9323 24.04C39.6283 24.7653 37.5909 25.5973 35.8203 26.536C34.0496 27.4533 32.5989 28.3813 31.4683 29.32C31.2549 29.4693 31.1163 29.576 31.0523 29.64C30.9883 29.704 30.9563 29.7467 30.9563 29.768C30.9563 29.896 31.3083 30.1307 32.0123 30.472C32.9509 30.9627 33.9216 31.4427 34.9243 31.912C35.9269 32.3813 37.0469 32.8613 38.2843 33.352C39.5216 33.8213 40.9403 34.3227 42.5403 34.856L40.3323 39.592C38.3909 39.016 36.4496 38.2907 34.5083 37.416C32.5669 36.5413 30.8069 35.656 29.2283 34.76C29.2496 35.4853 29.2816 36.2213 29.3243 36.968C29.3883 37.7147 29.4416 38.4613 29.4843 39.208L23.9163 39.336ZM53.3838 39.624C51.6771 39.624 50.1838 39.3467 48.9038 38.792C47.6451 38.2373 46.5998 37.48 45.7678 36.52C44.9358 35.5387 44.3171 34.4187 43.9118 33.16C43.5064 31.9013 43.3038 30.5787 43.3038 29.192C43.3038 27.784 43.5491 26.4827 44.0398 25.288C44.5518 24.072 45.2451 23.016 46.1198 22.12C47.0158 21.224 48.0611 20.5307 49.2558 20.04C50.4504 19.528 51.7518 19.272 53.1598 19.272C54.6318 19.272 55.9971 19.528 57.2558 20.04C58.5144 20.552 59.6131 21.2667 60.5518 22.184C61.4904 23.1013 62.2158 24.1787 62.7278 25.416C63.2611 26.6533 63.5278 27.9973 63.5278 29.448C63.5278 32.6693 62.6424 35.176 60.8718 36.968C59.1011 38.7387 56.6051 39.624 53.3838 39.624ZM53.3518 34.44C54.9091 34.44 56.0931 34.0027 56.9038 33.128C57.7358 32.2533 58.1518 30.9947 58.1518 29.352C58.1518 27.88 57.7038 26.696 56.8078 25.8C55.9118 24.904 54.7384 24.456 53.2878 24.456C52.4131 24.456 51.6131 24.6907 50.8878 25.16C50.1624 25.608 49.5758 26.216 49.1278 26.984C48.7011 27.7307 48.4878 28.5627 48.4878 29.48C48.4878 30.2907 48.6478 31.08 48.9678 31.848C49.3091 32.616 49.8424 33.2453 50.5677 33.736C51.2931 34.2053 52.2211 34.44 53.3518 34.44ZM66.26 39.336C66.1747 38.312 66.1 37 66.036 35.4C65.9933 33.8 65.972 32.0613 65.972 30.184C65.972 28.52 65.9827 26.8027 66.004 25.032C66.0467 23.2613 66.1 21.5227 66.164 19.816C66.2493 18.088 66.3347 16.4773 66.42 14.984C66.5267 13.4693 66.644 12.1467 66.772 11.016L72.34 11.4C72.0413 13.576 71.8067 15.784 71.636 18.024C71.4867 20.2427 71.3907 22.504 71.348 24.808C72.5427 23.976 73.9293 23.1013 75.508 22.184C77.108 21.2453 79.028 20.1893 81.268 19.016L84.276 24.04C81.972 24.7653 79.9347 25.5973 78.164 26.536C76.3933 27.4533 74.9427 28.3813 73.812 29.32C73.5987 29.4693 73.46 29.576 73.396 29.64C73.332 29.704 73.3 29.7467 73.3 29.768C73.3 29.896 73.652 30.1307 74.356 30.472C75.2947 30.9627 76.2653 31.4427 77.268 31.912C78.2707 32.3813 79.3907 32.8613 80.628 33.352C81.8653 33.8213 83.284 34.3227 84.884 34.856L82.676 39.592C80.7347 39.016 78.7933 38.2907 76.852 37.416C74.9107 36.5413 73.1507 35.656 71.572 34.76C71.5933 35.4853 71.6253 36.2213 71.668 36.968C71.732 37.7147 71.7853 38.4613 71.828 39.208L66.26 39.336Z" fill="#C060A1"/>
<path d="M43 44C45.8333 46.5 53.9 50 63.5 44" stroke="#C060A1" stroke-width="6"/>
</svg>
